{
.appVersion = "1060";
copyright = "Copyright 2017 Google Inc. All Rights Reserved.";
customParameters = (
{
name = glyphOrder;
value = (
.notdef,
NULL,
CR,
space,
uni00A0,
hyphen,
hyphentwo,
uni1B80,
uni1B81,
uni1B82,
uni1B83,
uni1B84,
uni1B85,
uni1B86,
uni1B87,
uni1B88,
uni1B89,
uni1B8A,
uni1B8B,
uni1B8C,
uni1B8D,
uni1B8E,
uni1B8F,
uni1B90,
uni1B91,
uni1B92,
uni1B93,
uni1B94,
uni1B95,
uni1B96,
uni1B97,
uni1B98,
uni1B99,
uni1B9A,
uni1B9B,
uni1B9C,
uni1B9D,
uni1B9E,
uni1B9F,
uni1BA0,
uni1BA1,
uni1BA2,
uni1BA3,
uni1BA4,
uni1BA5,
uni1BA6,
uni1BA7,
uni1BA8,
uni1BA9,
uni1BAA,
uni1BAB,
uni1BAC,
uni1BAD,
uni1BAE,
uni1BAF,
uni1BB0,
uni1BB1,
uni1BB2,
uni1BB3,
uni1BB4,
uni1BB5,
uni1BB6,
uni1BB7,
uni1BB8,
uni1BB9,
uni1BBA,
uni1BBB,
uni1BBC,
uni1BBD,
uni1BBE,
uni1BBF,
uni1CC0,
uni1CC1,
uni1CC2,
uni1CC3,
uni1CC4,
uni1CC5,
uni1CC6,
uni1CC7,
uni1BA41B80,
uni1BA81B80,
uni1BA91B80,
uni1BA21BA5,
uni1BA31BA5,
uni1BA11BA5,
uni200B,
uni200C,
uni200D,
uni25CC
);
},
{
name = description;
value = "Designed by Monotype design team.";
},
{
name = license;
value = "This Font Software is licensed under the SIL Open Font License, Version 1.1. This Font Software is distributed on an \"AS IS\" BASIS, WITHOUT WARRANTIES OR CONDITIONS OF ANY KIND, either express or implied. See the SIL Open Font License for the specific language, permissions and limitations governing your use of this Font Software.";
},
{
name = licenseURL;
value = "http://scripts.sil.org/OFL";
},
{
name = vendorID;
value = GOOG;
},
{
name = unicodeRanges;
value = (
0,
1,
31,
45,
112
);
},
{
name = trademark;
value = "Noto is a trademark of Google Inc.";
},
{
name = "Has WWS Names";
value = 1;
},
{
name = versionString;
value = "Version 1.900";
},
{
name = fsType;
value = (
);
},
{
name = codePageRanges;
value = (
"1252"
);
}
);
date = "2017-05-11 14:38:19 +0000";
designer = "Monotype Design Team";
designerURL = "http://www.monotype.com/studio";
disablesAutomaticAlignment = 1;
disablesNiceNames = 1;

glyphs = (
{
glyphname = .notdef;
lastChange = "2017-09-14 15:53:51 +0000";
layers = (
{
layerId = UUID0;
paths = (
{
closed = 1;
nodes = (
"505 0 LINE",
"505 714 LINE",
"94 714 LINE",
"94 0 LINE"
);
},
{
closed = 1;
nodes = (
"145 663 LINE",
"454 663 LINE",
"454 51 LINE",
"145 51 LINE"
);
}
);
width = 600;
}
);
},
{
glyphname = hyphen;
lastChange = "2017-09-14 15:53:51 +0000";
layers = (
{
associatedMasterId = UUID0;
background = {
paths = (
{
closed = 1;
nodes = (
"297 192 LINE",
"297 344 LINE",
"21 344 LINE",
"21 192 LINE"
);
}
);
};
layerId = "0A718E2F-231D-484E-9433-16A5230D2CE8";
paths = (
{
closed = 1;
nodes = (
"297 192 LINE",
"297 344 LINE",
"21 344 LINE",
"21 192 LINE"
);
}
);
width = 318;
},
{
associatedMasterId = UUID0;
background = {
paths = (
{
closed = 1;
nodes = (
"296 192 LINE",
"296 344 LINE",
"29 344 LINE",
"29 192 LINE"
);
}
);
};
layerId = "98E204A9-1C79-49C7-AB3E-40A925F56409";
paths = (
{
closed = 1;
nodes = (
"296 192 LINE",
"296 344 LINE",
"29 344 LINE",
"29 192 LINE"
);
}
);
width = 325;
},
{
associatedMasterId = UUID0;
background = {
paths = (
{
closed = 1;
nodes = (
"282 229 LINE",
"282 307 LINE",
"40 307 LINE",
"40 229 LINE"
);
}
);
};
layerId = "9FF96064-8718-4A86-A5C8-73C592101F67";
paths = (
{
closed = 1;
nodes = (
"282 229 LINE",
"282 307 LINE",
"40 307 LINE",
"40 229 LINE"
);
}
);
width = 322;
},
{
associatedMasterId = UUID0;
background = {
paths = (
{
closed = 1;
nodes = (
"292 207 LINE",
"292 329 LINE",
"30 329 LINE",
"30 207 LINE"
);
}
);
};
layerId = "134B12F2-BF5D-48E3-8003-C7502B438C7E";
paths = (
{
closed = 1;
nodes = (
"292 207 LINE",
"292 329 LINE",
"30 329 LINE",
"30 207 LINE"
);
}
);
width = 322;
},
{
associatedMasterId = UUID0;
background = {
paths = (
{
closed = 1;
nodes = (
"247 229 LINE",
"247 310 LINE",
"27 310 LINE",
"27 229 LINE"
);
}
);
};
layerId = "36F3C8CB-53EE-4548-BFDE-2C03212BACAA";
paths = (
{
closed = 1;
nodes = (
"247 229 LINE",
"247 310 LINE",
"27 310 LINE",
"27 229 LINE"
);
}
);
width = 274;
},
{
associatedMasterId = UUID0;
background = {
paths = (
{
closed = 1;
nodes = (
"277 206 LINE",
"277 331 LINE",
"28 331 LINE",
"28 206 LINE"
);
}
);
};
layerId = "43B45EC1-5522-4B1A-B0C7-88628E50A583";
paths = (
{
closed = 1;
nodes = (
"277 206 LINE",
"277 331 LINE",
"28 331 LINE",
"28 206 LINE"
);
}
);
width = 305;
},
{
layerId = UUID0;
paths = (
{
closed = 1;
nodes = (
"282 229 LINE",
"282 307 LINE",
"40 307 LINE",
"40 229 LINE"
);
}
);
width = 322;
},
{
associatedMasterId = UUID0;
background = {
paths = (
{
closed = 1;
nodes = (
"237 259 LINE",
"237 286 LINE",
"26 286 LINE",
"26 259 LINE"
);
}
);
};
layerId = "029FEF0C-5FA4-4A3E-AC23-838A1147A554";
paths = (
{
closed = 1;
nodes = (
"237 259 LINE",
"237 286 LINE",
"26 286 LINE",
"26 259 LINE"
);
}
);
width = 263;
}
);
leftKerningGroup = hyphen.right;
rightKerningGroup = hyphen.left;
unicode = 002D;
},
{
glyphname = uni1B80;
lastChange = "2017-09-14 15:53:51 +0000";
layers = (
{
layerId = UUID0;
paths = (
{
closed = 1;
nodes = (
"-157 756 OFFCURVE",
"-109 804 OFFCURVE",
"-109 863 CURVE SMOOTH",
"-109 922 OFFCURVE",
"-157 970 OFFCURVE",
"-216 970 CURVE SMOOTH",
"-275 970 OFFCURVE",
"-323 922 OFFCURVE",
"-323 863 CURVE SMOOTH",
"-323 804 OFFCURVE",
"-275 756 OFFCURVE",
"-216 756 CURVE SMOOTH"
);
},
{
closed = 1;
nodes = (
"-243 814 OFFCURVE",
"-265 836 OFFCURVE",
"-265 863 CURVE SMOOTH",
"-265 890 OFFCURVE",
"-243 911 OFFCURVE",
"-216 911 CURVE SMOOTH",
"-189 911 OFFCURVE",
"-168 890 OFFCURVE",
"-168 863 CURVE SMOOTH",
"-168 836 OFFCURVE",
"-189 814 OFFCURVE",
"-216 814 CURVE SMOOTH"
);
}
);
width = 0;
}
);
unicode = 1B80;
},
{
glyphname = uni1B81;
lastChange = "2017-09-14 15:53:51 +0000";
layers = (
{
layerId = UUID0;
paths = (
{
closed = 1;
nodes = (
"-166 756 LINE",
"-62 934 LINE",
"-107 961 LINE",
"-186 832 LINE",
"-258 939 LINE",
"-301 939 LINE",
"-369 837 LINE",
"-330 809 LINE",
"-283 875 LINE",
"-202 756 LINE"
);
}
);
width = 0;
}
);
unicode = 1B81;
},
{
glyphname = uni1B82;
lastChange = "2017-09-14 15:53:51 +0000";
layers = (
{
layerId = UUID0;
paths = (
{
closed = 1;
nodes = (
"303 0 LINE",
"203 284 LINE",
"136 284 LINE",
"236 0 LINE"
);
},
{
closed = 1;
nodes = (
"168 0 LINE",
"68 284 LINE",
"1 284 LINE",
"101 0 LINE"
);
}
);
width = 387;
}
);
unicode = 1B82;
},
{
glyphname = uni1B83;
lastChange = "2017-09-14 15:53:51 +0000";
layers = (
{
layerId = UUID0;
paths = (
{
closed = 1;
nodes = (
"727 -13 OFFCURVE",
"797 105 OFFCURVE",
"797 223 CURVE SMOOTH",
"797 333 OFFCURVE",
"692 422 OFFCURVE",
"539 422 CURVE",
"787 652 LINE",
"794 714 LINE",
"376 714 LINE",
"351 635 LINE",
"647 635 LINE",
"417 422 LINE",
"394 349 LINE",
"488 349 LINE SMOOTH",
"607 349 OFFCURVE",
"697 303 OFFCURVE",
"697 223 CURVE SMOOTH",
"697 138 OFFCURVE",
"636 69 OFFCURVE",
"497 69 CURVE SMOOTH",
"277 69 OFFCURVE",
"176 207 OFFCURVE",
"176 394 CURVE SMOOTH",
"176 532 OFFCURVE",
"214 615 OFFCURVE",
"303 736 CURVE",
"197 736 LINE",
"125 649 OFFCURVE",
"79 521 OFFCURVE",
"79 394 CURVE SMOOTH",
"79 177 OFFCURVE",
"197 -13 OFFCURVE",
"497 -13 CURVE SMOOTH"
);
}
);
width = 871;
}
);
unicode = 1B83;
},
{
glyphname = uni1B84;
lastChange = "2017-09-20 14:03:12 +0000";
layers = (
{
layerId = UUID0;
paths = (
{
closed = 1;
nodes = (
"439 0 LINE",
"507 206 LINE",
"413 206 LINE",
"370 79 LINE",
"101 79 LINE",
"284 635 LINE",
"408 635 LINE",
"434 714 LINE",
"214 714 LINE",
"-22 0 LINE"
);
}
);
width = 561;
}
);
unicode = 1B84;
},
{
glyphname = uni1B85;
lastChange = "2017-09-14 15:53:51 +0000";
layers = (
{
layerId = UUID0;
paths = (
{
closed = 1;
nodes = (
"655 0 LINE",
"673 54 LINE",
"540 173 LINE SMOOTH",
"522 189 OFFCURVE",
"490 217 OFFCURVE",
"490 236 CURVE SMOOTH",
"490 251 OFFCURVE",
"496 272 OFFCURVE",
"535 272 CURVE SMOOTH",
"735 272 LINE",
"761 351 LINE",
"534 351 LINE SMOOTH",
"437 351 OFFCURVE",
"398 301 OFFCURVE",
"398 239 CURVE SMOOTH",
"398 195 OFFCURVE",
"429 157 OFFCURVE",
"457 133 CURVE SMOOTH",
"518 79 LINE",
"217 79 LINE",
"427 714 LINE",
"98 714 LINE",
"72 635 LINE",
"301 635 LINE",
"92 0 LINE"
);
}
);
width = 765;
}
);
unicode = 1B85;
},
{
glyphname = uni1B86;
lastChange = "2017-09-14 15:53:51 +0000";
layers = (
{
layerId = UUID0;
paths = (
{
closed = 1;
nodes = (
"752 -13 OFFCURVE",
"837 105 OFFCURVE",
"837 223 CURVE SMOOTH",
"837 333 OFFCURVE",
"732 422 OFFCURVE",
"579 422 CURVE",
"616 456 OFFCURVE",
"656 480 OFFCURVE",
"718 480 CURVE SMOOTH",
"793 480 OFFCURVE",
"798 427 OFFCURVE",
"842 427 CURVE SMOOTH",
"868 427 OFFCURVE",
"886 443 OFFCURVE",
"886 468 CURVE SMOOTH",
"886 496 OFFCURVE",
"857 538 OFFCURVE",
"778 538 CURVE SMOOTH",
"748 538 OFFCURVE",
"717 531 OFFCURVE",
"688 523 CURVE",
"827 652 LINE",
"834 714 LINE",
"416 714 LINE",
"391 635 LINE",
"687 635 LINE",
"457 422 LINE",
"434 349 LINE",
"528 349 LINE SMOOTH",
"647 349 OFFCURVE",
"737 303 OFFCURVE",
"737 223 CURVE SMOOTH",
"737 138 OFFCURVE",
"659 69 OFFCURVE",
"506 69 CURVE SMOOTH",
"270 69 OFFCURVE",
"176 207 OFFCURVE",
"176 394 CURVE SMOOTH",
"176 527 OFFCURVE",
"212 614 OFFCURVE",
"303 736 CURVE",
"197 736 LINE",
"125 648 OFFCURVE",
"79 521 OFFCURVE",
"79 394 CURVE SMOOTH",
"79 177 OFFCURVE",
"192 -13 OFFCURVE",
"506 -13 CURVE SMOOTH"
);
}
);
width = 911;
}
);
unicode = 1B86;
},
{
glyphname = uni1B87;
lastChange = "2017-09-14 15:53:51 +0000";
layers = (
{
layerId = UUID0;
paths = (
{
closed = 1;
nodes = (
"473 0 LINE",
"547 212 LINE SMOOTH",
"555 235 OFFCURVE",
"568 280 OFFCURVE",
"618 280 CURVE SMOOTH",
"652 280 OFFCURVE",
"662 263 OFFCURVE",
"662 242 CURVE SMOOTH",
"662 223 OFFCURVE",
"655 200 OFFCURVE",
"649 183 CURVE SMOOTH",
"590 0 LINE",
"683 0 LINE",
"755 216 LINE SMOOTH",
"760 230 OFFCURVE",
"762 244 OFFCURVE",
"762 256 CURVE SMOOTH",
"762 323 OFFCURVE",
"696 358 OFFCURVE",
"632 358 CURVE SMOOTH",
"519 358 OFFCURVE",
"480 295 OFFCURVE",
"458 233 CURVE SMOOTH",
"403 79 LINE",
"217 79 LINE",
"428 714 LINE",
"82 714 LINE",
"218 376 LINE",
"92 0 LINE"
);
},
{
closed = 1;
nodes = (
"202 635 LINE",
"304 635 LINE",
"257 496 LINE"
);
}
);
width = 804;
}
);
unicode = 1B87;
},
{
glyphname = uni1B88;
lastChange = "2017-09-14 15:53:51 +0000";
layers = (
{
layerId = UUID0;
paths = (
{
closed = 1;
nodes = (
"634 -13 OFFCURVE",
"748 157 OFFCURVE",
"748 344 CURVE SMOOTH",
"748 378 LINE",
"680 378 LINE SMOOTH",
"454 378 OFFCURVE",
"391 414 OFFCURVE",
"391 497 CURVE SMOOTH",
"391 614 OFFCURVE",
"544 635 OFFCURVE",
"689 635 CURVE SMOOTH",
"714 635 LINE",
"740 714 LINE",
"695 714 LINE SMOOTH",
"506 714 OFFCURVE",
"291 680 OFFCURVE",
"291 494 CURVE SMOOTH",
"291 356 OFFCURVE",
"403 290 OFFCURVE",
"646 290 CURVE",
"646 198 OFFCURVE",
"552 69 OFFCURVE",
"410 69 CURVE SMOOTH",
"231 69 OFFCURVE",
"136 210 OFFCURVE",
"136 421 CURVE SMOOTH",
"136 452 LINE",
"39 452 LINE",
"39 404 LINE SMOOTH",
"39 196 OFFCURVE",
"134 -13 OFFCURVE",
"410 -13 CURVE SMOOTH"
);
}
);
width = 795;
}
);
unicode = 1B88;
},
{
glyphname = uni1B89;
lastChange = "2017-09-14 15:53:51 +0000";
layers = (
{
layerId = UUID0;
paths = (
{
closed = 1;
nodes = (
"720 -13 OFFCURVE",
"797 92 OFFCURVE",
"797 193 CURVE SMOOTH",
"797 303 OFFCURVE",
"720 381 OFFCURVE",
"567 381 CURVE",
"769 486 LINE",
"778 562 LINE",
"392 562 LINE",
"367 483 LINE",
"615 483 LINE",
"445 395 LINE",
"417 308 LINE",
"520 308 LINE SMOOTH",
"639 308 OFFCURVE",
"697 273 OFFCURVE",
"697 193 CURVE SMOOTH",
"697 121 OFFCURVE",
"623 69 OFFCURVE",
"497 69 CURVE SMOOTH",
"277 69 OFFCURVE",
"176 207 OFFCURVE",
"176 394 CURVE SMOOTH",
"176 521 OFFCURVE",
"209 610 OFFCURVE",
"303 736 CURVE",
"197 736 LINE",
"125 649 OFFCURVE",
"79 519 OFFCURVE",
"79 394 CURVE SMOOTH",
"79 177 OFFCURVE",
"197 -13 OFFCURVE",
"497 -13 CURVE SMOOTH"
);
},
{
closed = 1;
nodes = (
"634 606 LINE",
"783 758 LINE",
"690 758 LINE",
"601 669 LINE",
"512 758 LINE",
"419 758 LINE",
"568 606 LINE"
);
}
);
width = 871;
}
);
unicode = 1B89;
},
{
glyphname = uni1B8A;
lastChange = "2017-09-14 15:53:51 +0000";
layers = (
{
layerId = UUID0;
paths = (
{
closed = 1;
nodes = (
"593 0 LINE",
"831 714 LINE",
"505 714 LINE",
"479 635 LINE",
"708 635 LINE",
"494 0 LINE"
);
},
{
closed = 1;
nodes = (
"189 0 LINE",
"427 714 LINE",
"101 714 LINE",
"75 635 LINE",
"304 635 LINE",
"90 0 LINE"
);
}
);
width = 793;
}
);
unicode = 1B8A;
},
{
glyphname = uni1B8B;
lastChange = "2017-09-14 15:53:51 +0000";
layers = (
{
layerId = UUID0;
paths = (
{
closed = 1;
nodes = (
"76 0 LINE",
"286 635 LINE",
"450 635 LINE",
"240 0 LINE",
"339 0 LINE",
"548 635 LINE",
"712 635 LINE",
"502 0 LINE",
"601 0 LINE",
"835 714 LINE",
"213 714 LINE",
"-23 0 LINE"
);
}
);
width = 800;
}
);
unicode = 1B8B;
},
{
glyphname = uni1B8C;
lastChange = "2017-09-14 15:53:51 +0000";
layers = (
{
layerId = UUID0;
paths = (
{
closed = 1;
nodes = (
"629 0 LINE",
"744 351 LINE",
"471 351 LINE",
"445 272 LINE",
"625 272 LINE",
"561 79 LINE",
"218 79 LINE",
"428 714 LINE",
"100 714 LINE",
"74 635 LINE",
"302 635 LINE",
"93 0 LINE"
);
}
);
width = 801;
}
);
unicode = 1B8C;
},
{
glyphname = uni1B8D;
lastChange = "2017-09-14 15:53:51 +0000";
layers = (
{
layerId = UUID0;
paths = (
{
closed = 1;
nodes = (
"678 0 LINE",
"564 351 LINE",
"469 351 LINE",
"557 79 LINE",
"218 79 LINE",
"428 714 LINE",
"100 714 LINE",
"74 635 LINE",
"302 635 LINE",
"93 0 LINE"
);
}
);
width = 728;
}
);
unicode = 1B8D;
},
{
glyphname = uni1B8E;
lastChange = "2017-09-14 15:53:51 +0000";
layers = (
{
layerId = UUID0;
paths = (
{
closed = 1;
nodes = (
"531 -14 OFFCURVE",
"571 51 OFFCURVE",
"616 187 CURVE SMOOTH",
"791 714 LINE",
"693 714 LINE",
"539 249 LINE SMOOTH",
"492 107 OFFCURVE",
"462 76 OFFCURVE",
"413 76 CURVE SMOOTH",
"378 76 OFFCURVE",
"327 109 OFFCURVE",
"270 161 CURVE",
"452 714 LINE",
"121 714 LINE",
"95 635 LINE",
"326 635 LINE",
"189 213 LINE",
"169 225 OFFCURVE",
"134 234 OFFCURVE",
"104 234 CURVE SMOOTH",
"35 234 OFFCURVE",
"-30 193 OFFCURVE",
"-30 105 CURVE SMOOTH",
"-30 21 OFFCURVE",
"36 -13 OFFCURVE",
"100 -13 CURVE SMOOTH",
"169 -13 OFFCURVE",
"207 20 OFFCURVE",
"234 68 CURVE",
"282 28 OFFCURVE",
"345 -14 OFFCURVE",
"421 -14 CURVE SMOOTH"
);
},
{
closed = 1;
nodes = (
"67 59 OFFCURVE",
"49 80 OFFCURVE",
"49 110 CURVE SMOOTH",
"49 140 OFFCURVE",
"73 158 OFFCURVE",
"102 158 CURVE SMOOTH",
"129 158 OFFCURVE",
"148 148 OFFCURVE",
"166 131 CURVE",
"159 110 OFFCURVE",
"143 59 OFFCURVE",
"101 59 CURVE SMOOTH"
);
}
);
width = 750;
}
);
unicode = 1B8E;
},
{
glyphname = uni1B8F;
lastChange = "2017-09-14 15:53:51 +0000";
layers = (
{
layerId = UUID0;
paths = (
{
closed = 1;
nodes = (
"304 0 LINE",
"397 284 LINE",
"493 0 LINE",
"587 0 LINE",
"442 414 LINE",
"352 414 LINE",
"234 79 LINE",
"101 79 LINE",
"286 635 LINE",
"411 635 LINE",
"437 714 LINE",
"212 714 LINE",
"-23 0 LINE"
);
},
{
closed = 1;
nodes = (
"765 0 LINE",
"620 414 LINE",
"525 414 LINE",
"672 0 LINE"
);
}
);
width = 815;
}
);
unicode = 1B8F;
},
{
glyphname = uni1B90;
lastChange = "2017-09-14 15:53:51 +0000";
layers = (
{
layerId = UUID0;
paths = (
{
closed = 1;
nodes = (
"473 0 LINE",
"536 181 LINE SMOOTH",
"544 204 OFFCURVE",
"557 249 OFFCURVE",
"607 249 CURVE SMOOTH",
"641 249 OFFCURVE",
"651 232 OFFCURVE",
"651 211 CURVE SMOOTH",
"651 192 OFFCURVE",
"643 169 OFFCURVE",
"638 152 CURVE SMOOTH",
"590 0 LINE",
"684 0 LINE",
"744 185 LINE SMOOTH",
"749 199 OFFCURVE",
"751 212 OFFCURVE",
"751 225 CURVE SMOOTH",
"751 291 OFFCURVE",
"685 327 OFFCURVE",
"621 327 CURVE SMOOTH",
"508 327 OFFCURVE",
"469 264 OFFCURVE",
"447 202 CURVE SMOOTH",
"403 79 LINE",
"217 79 LINE",
"428 714 LINE",
"95 714 LINE",
"69 635 LINE",
"302 635 LINE",
"93 0 LINE"
);
}
);
width = 829;
}
);
unicode = 1B90;
},
{
glyphname = uni1B91;
lastChange = "2017-09-14 15:53:51 +0000";
layers = (
{
layerId = UUID0;
paths = (
{
closed = 1;
nodes = (
"474 0 LINE",
"580 323 LINE",
"814 0 LINE",
"876 0 LINE",
"1114 714 LINE",
"623 714 LINE",
"581 589 LINE",
"677 589 LINE",
"693 635 LINE",
"991 635 LINE",
"822 135 LINE",
"579 474 LINE",
"536 474 LINE",
"404 79 LINE",
"207 79 LINE",
"417 714 LINE",
"102 714 LINE",
"76 635 LINE",
"294 635 LINE",
"84 0 LINE"
);
}
);
width = 1077;
}
);
unicode = 1B91;
},
{
glyphname = uni1B92;
lastChange = "2017-09-14 15:53:51 +0000";
layers = (
{
layerId = UUID0;
paths = (
{
closed = 1;
nodes = (
"393 0 LINE",
"543 457 LINE",
"727 457 LINE",
"578 0 LINE",
"676 0 LINE",
"852 536 LINE",
"569 536 LINE",
"627 714 LINE",
"530 714 LINE",
"323 79 LINE",
"156 79 LINE",
"310 536 LINE",
"62 536 LINE",
"36 457 LINE",
"187 457 LINE",
"33 0 LINE"
);
}
);
width = 861;
}
);
unicode = 1B92;
},
{
glyphname = uni1B93;
lastChange = "2017-09-14 15:53:51 +0000";
layers = (
{
layerId = UUID0;
paths = (
{
closed = 1;
nodes = (
"379 0 LINE",
"472 284 LINE",
"567 0 LINE",
"662 0 LINE",
"518 414 LINE",
"426 414 LINE",
"308 79 LINE",
"101 79 LINE",
"284 635 LINE",
"487 635 LINE",
"513 714 LINE",
"214 714 LINE",
"-22 0 LINE"
);
}
);
width = 712;
}
);
unicode = 1B93;
},
{
glyphname = uni1B94;
lastChange = "2017-09-14 15:53:51 +0000";
layers = (
{
layerId = UUID0;
paths = (
{
closed = 1;
nodes = (
"655 0 LINE",
"681 79 LINE",
"288 79 LINE",
"498 714 LINE",
"102 714 LINE",
"76 635 LINE",
"372 635 LINE",
"163 0 LINE"
);
}
);
width = 721;
}
);
unicode = 1B94;
},
{
glyphname = uni1B95;
lastChange = "2017-09-14 15:53:51 +0000";
layers = (
{
layerId = UUID0;
paths = (
{
closed = 1;
nodes = (
"593 0 LINE",
"829 714 LINE",
"502 714 LINE",
"476 635 LINE",
"703 635 LINE",
"520 79 LINE",
"218 79 LINE",
"428 714 LINE",
"101 714 LINE",
"75 635 LINE",
"302 635 LINE",
"93 0 LINE"
);
}
);
width = 793;
}
);
unicode = 1B95;
},
{
glyphname = uni1B96;
lastChange = "2017-09-14 15:53:51 +0000";
layers = (
{
layerId = UUID0;
paths = (
{
closed = 1;
nodes = (
"593 0 LINE",
"829 714 LINE",
"732 714 LINE",
"520 79 LINE",
"218 79 LINE",
"428 714 LINE",
"101 714 LINE",
"75 635 LINE",
"302 635 LINE",
"93 0 LINE"
);
}
);
width = 793;
}
);
unicode = 1B96;
},
{
glyphname = uni1B97;
lastChange = "2017-09-14 15:53:51 +0000";
layers = (
{
layerId = UUID0;
paths = (
{
closed = 1;
nodes = (
"476 0 LINE",
"712 714 LINE",
"615 714 LINE",
"403 79 LINE",
"100 79 LINE",
"310 714 LINE",
"213 714 LINE",
"-22 0 LINE"
);
}
);
width = 676;
}
);
unicode = 1B97;
},
{
glyphname = uni1B98;
lastChange = "2017-09-14 15:53:51 +0000";
layers = (
{
layerId = UUID0;
paths = (
{
closed = 1;
nodes = (
"368 0 LINE",
"474 323 LINE",
"708 0 LINE",
"770 0 LINE",
"1008 714 LINE",
"517 714 LINE",
"475 589 LINE",
"571 589 LINE",
"587 635 LINE",
"885 635 LINE",
"716 135 LINE",
"473 474 LINE",
"430 474 LINE",
"298 79 LINE",
"101 79 LINE",
"284 635 LINE",
"377 635 LINE",
"402 714 LINE",
"214 714 LINE",
"-22 0 LINE"
);
}
);
width = 970;
}
);
unicode = 1B98;
},
{
glyphname = uni1B99;
lastChange = "2017-09-14 15:53:51 +0000";
layers = (
{
layerId = UUID0;
paths = (
{
closed = 1;
nodes = (
"492 0 LINE",
"727 714 LINE",
"101 714 LINE",
"75 635 LINE",
"602 635 LINE",
"419 79 LINE",
"197 79 LINE",
"309 413 LINE",
"71 413 LINE",
"45 334 LINE",
"183 334 LINE",
"72 0 LINE"
);
}
);
width = 691;
}
);
unicode = 1B99;
},
{
glyphname = uni1B9A;
lastChange = "2017-09-14 15:53:51 +0000";
layers = (
{
layerId = UUID0;
paths = (
{
closed = 1;
nodes = (
"393 0 LINE",
"487 286 LINE",
"586 0 LINE",
"684 0 LINE",
"860 536 LINE",
"763 536 LINE",
"631 136 LINE",
"533 427 LINE",
"627 714 LINE",
"530 714 LINE",
"323 79 LINE",
"156 79 LINE",
"310 536 LINE",
"62 536 LINE",
"36 457 LINE",
"187 457 LINE",
"33 0 LINE"
);
}
);
width = 869;
}
);
unicode = 1B9A;
},
{
glyphname = uni1B9B;
lastChange = "2017-09-14 15:53:51 +0000";
layers = (
{
layerId = UUID0;
paths = (
{
closed = 1;
nodes = (
"326 0 LINE",
"408 250 LINE",
"512 250 LINE",
"538 329 LINE",
"434 329 LINE",
"508 553 LINE",
"91 553 LINE",
"65 474 LINE",
"384 474 LINE",
"336 329 LINE",
"100 329 LINE",
"74 250 LINE",
"310 250 LINE",
"227 0 LINE"
);
},
{
closed = 1;
nodes = (
"535 635 LINE",
"561 714 LINE",
"100 714 LINE",
"74 635 LINE"
);
}
);
width = 535;
}
);
unicode = 1B9B;
},
{
glyphname = uni1B9C;
lastChange = "2017-09-14 15:53:51 +0000";
layers = (
{
layerId = UUID0;
paths = (
{
closed = 1;
nodes = (
"78 0 LINE",
"287 635 LINE",
"405 635 LINE",
"194 0 LINE",
"589 0 LINE",
"824 714 LINE",
"725 714 LINE",
"516 79 LINE",
"318 79 LINE",
"528 714 LINE",
"214 714 LINE",
"-20 0 LINE"
);
}
);
width = 788;
}
);
unicode = 1B9C;
},
{
glyphname = uni1B9D;
lastChange = "2017-09-14 15:53:51 +0000";
layers = (
{
layerId = UUID0;
paths = (
{
closed = 1;
nodes = (
"555 0 LINE",
"670 351 LINE",
"371 351 LINE",
"345 272 LINE",
"551 272 LINE",
"487 79 LINE",
"101 79 LINE",
"284 635 LINE",
"487 635 LINE",
"513 714 LINE",
"214 714 LINE",
"-22 0 LINE"
);
}
);
width = 684;
}
);
unicode = 1B9D;
},
{
glyphname = uni1B9E;
lastChange = "2017-09-14 15:53:51 +0000";
layers = (
{
layerId = UUID0;
paths = (
{
closed = 1;
nodes = (
"593 0 LINE",
"699 318 LINE",
"816 318 LINE",
"842 397 LINE",
"725 397 LINE",
"831 714 LINE",
"505 714 LINE",
"479 635 LINE",
"710 635 LINE",
"629 397 LINE",
"505 397 LINE",
"479 318 LINE",
"603 318 LINE",
"496 0 LINE"
);
},
{
closed = 1;
nodes = (
"189 0 LINE",
"295 318 LINE",
"412 318 LINE",
"438 397 LINE",
"321 397 LINE",
"427 714 LINE",
"101 714 LINE",
"75 635 LINE",
"306 635 LINE",
"225 397 LINE",
"101 397 LINE",
"75 318 LINE",
"199 318 LINE",
"92 0 LINE"
);
}
);
width = 797;
}
);
unicode = 1B9E;
},
{
glyphname = uni1B9F;
lastChange = "2017-09-14 15:53:51 +0000";
layers = (
{
layerId = UUID0;
paths = (
{
closed = 1;
nodes = (
"189 0 LINE",
"295 318 LINE",
"601 318 LINE",
"494 0 LINE",
"593 0 LINE",
"831 714 LINE",
"101 714 LINE",
"75 635 LINE",
"304 635 LINE",
"223 397 LINE",
"101 397 LINE",
"75 318 LINE",
"197 318 LINE",
"90 0 LINE"
);
},
{
closed = 1;
nodes = (
"400 635 LINE",
"708 635 LINE",
"627 397 LINE",
"321 397 LINE"
);
}
);
width = 797;
}
);
unicode = 1B9F;
},
{
glyphname = uni1BA0;
lastChange = "2017-09-14 15:53:51 +0000";
layers = (
{
layerId = UUID0;
paths = (
{
closed = 1;
nodes = (
"346 0 LINE",
"554 635 LINE",
"682 635 LINE",
"474 0 LINE",
"572 0 LINE",
"806 714 LINE",
"483 714 LINE",
"276 79 LINE",
"178 79 LINE",
"290 412 LINE",
"42 412 LINE",
"16 333 LINE",
"167 333 LINE",
"55 0 LINE"
);
}
);
width = 770;
}
);
unicode = 1BA0;
},
{
glyphname = uni1BA1;
lastChange = "2017-09-14 15:53:51 +0000";
layers = (
{
layerId = UUID0;
paths = (
{
closed = 1;
nodes = (
"-108 -241 LINE",
"47 228 LINE",
"102 228 LINE",
"71 133 LINE",
"133 133 LINE",
"182 284 LINE",
"-6 284 LINE",
"-159 -181 LINE",
"-497 -181 LINE",
"-480 -129 LINE",
"-542 -129 LINE",
"-578 -241 LINE"
);
}
);
width = 212;
}
);
unicode = 1BA1;
},
{
glyphname = uni1BA2;
lastChange = "2017-09-14 15:53:51 +0000";
layers = (
{
layerId = UUID0;
paths = (
{
closed = 1;
nodes = (
"-53 -271 OFFCURVE",
"12 -240 OFFCURVE",
"12 -155 CURVE SMOOTH",
"12 -107 OFFCURVE",
"-26 -56 OFFCURVE",
"-63 -25 CURVE",
"-107 -65 LINE",
"-82 -94 OFFCURVE",
"-54 -120 OFFCURVE",
"-54 -157 CURVE SMOOTH",
"-54 -190 OFFCURVE",
"-78 -212 OFFCURVE",
"-128 -212 CURVE SMOOTH",
"-219 -212 OFFCURVE",
"-346 -76 OFFCURVE",
"-397 -30 CURVE",
"-585 -124 LINE",
"-554 -185 LINE",
"-408 -110 LINE",
"-338 -172 OFFCURVE",
"-240 -271 OFFCURVE",
"-126 -271 CURVE SMOOTH"
);
}
);
width = 0;
}
);
unicode = 1BA2;
},
{
glyphname = uni1BA3;
lastChange = "2017-09-14 15:53:51 +0000";
layers = (
{
layerId = UUID0;
paths = (
{
closed = 1;
nodes = (
"-525 -248 LINE",
"-476 -98 LINE",
"-414 -98 LINE",
"-460 -240 LINE",
"-328 -240 LINE",
"-313 -195 LINE",
"-390 -195 LINE",
"-343 -53 LINE",
"-517 -53 LINE",
"-581 -248 LINE"
);
}
);
width = 0;
}
);
unicode = 1BA3;
},
{
glyphname = uni1BA4;
lastChange = "2017-09-14 15:53:51 +0000";
layers = (
{
layerId = UUID0;
paths = (
{
closed = 1;
nodes = (
"-147 965 LINE",
"-358 965 LINE",
"-358 917 LINE",
"-226 917 LINE",
"-262 825 LINE",
"-360 839 LINE",
"-369 791 LINE",
"-228 754 LINE"
);
}
);
width = 0;
}
);
unicode = 1BA4;
},
{
glyphname = uni1BA5;
lastChange = "2017-09-14 15:53:51 +0000";
layers = (
{
layerId = UUID0;
paths = (
{
closed = 1;
nodes = (
"-424 -248 LINE",
"-347 -53 LINE",
"-538 -53 LINE",
"-538 -101 LINE",
"-424 -101 LINE",
"-481 -248 LINE"
);
}
);
width = 0;
}
);
unicode = 1BA5;
},
{
glyphname = uni1BA6;
lastChange = "2017-09-14 15:53:51 +0000";
layers = (
{
layerId = UUID0;
paths = (
{
closed = 1;
nodes = (
"292 0 LINE",
"314 68 LINE",
"125 68 LINE",
"162 151 LINE",
"267 151 LINE",
"284 205 LINE",
"186 205 LINE",
"252 356 LINE",
"8 356 LINE",
"-14 288 LINE",
"153 288 LINE",
"24 0 LINE"
);
}
);
width = 375;
}
);
unicode = 1BA6;
},
{
glyphname = uni1BA7;
lastChange = "2017-09-14 15:53:51 +0000";
layers = (
{
layerId = UUID0;
paths = (
{
closed = 1;
nodes = (
"303 0 LINE",
"325 68 LINE",
"136 68 LINE",
"263 356 LINE",
"19 356 LINE",
"-3 288 LINE",
"164 288 LINE",
"126 205 LINE",
"21 205 LINE",
"4 151 LINE",
"102 151 LINE",
"35 0 LINE"
);
}
);
width = 375;
}
);
unicode = 1BA7;
},
{
glyphname = uni1BA8;
lastChange = "2017-09-14 15:53:51 +0000";
layers = (
{
layerId = UUID0;
paths = (
{
closed = 1;
nodes = (
"-215 756 LINE",
"-90 955 LINE",
"-161 955 LINE",
"-238 827 LINE",
"-315 955 LINE",
"-386 955 LINE",
"-261 756 LINE"
);
}
);
width = 0;
}
);
unicode = 1BA8;
},
{
glyphname = uni1BA9;
lastChange = "2017-09-14 15:53:51 +0000";
layers = (
{
layerId = UUID0;
paths = (
{
closed = 1;
nodes = (
"-215 756 LINE",
"-90 955 LINE",
"-161 955 LINE",
"-238 827 LINE",
"-255 856 LINE",
"-194 955 LINE",
"-245 955 LINE",
"-280 897 LINE",
"-315 955 LINE",
"-386 955 LINE",
"-261 756 LINE"
);
}
);
width = 0;
}
);
unicode = 1BA9;
},
{
glyphname = uni1BAA;
lastChange = "2017-09-14 15:53:51 +0000";
layers = (
{
layerId = UUID0;
paths = (
{
closed = 1;
nodes = (
"139 -127 OFFCURVE",
"186 -119 OFFCURVE",
"215 -100 CURVE",
"198 -53 LINE",
"186 -60 OFFCURVE",
"153 -77 OFFCURVE",
"111 -77 CURVE SMOOTH",
"77 -77 OFFCURVE",
"67 -66 OFFCURVE",
"67 -52 CURVE SMOOTH",
"67 -32 OFFCURVE",
"105 -8 OFFCURVE",
"140 24 CURVE SMOOTH",
"170 52 OFFCURVE",
"204 74 OFFCURVE",
"204 127 CURVE SMOOTH",
"204 186 OFFCURVE",
"159 215 OFFCURVE",
"88 222 CURVE",
"187 308 LINE",
"187 329 LINE",
"-5 329 LINE",
"-20 284 LINE",
"79 284 LINE",
"-3 213 LINE",
"-12 185 LINE",
"12 185 LINE SMOOTH",
"93 185 OFFCURVE",
"141 172 OFFCURVE",
"141 127 CURVE SMOOTH",
"141 99 OFFCURVE",
"108 71 OFFCURVE",
"74 42 CURVE SMOOTH",
"38 11 OFFCURVE",
"2 -19 OFFCURVE",
"2 -58 CURVE SMOOTH",
"2 -111 OFFCURVE",
"50 -127 OFFCURVE",
"107 -127 CURVE SMOOTH"
);
}
);
width = 264;
}
);
unicode = 1BAA;
},
{
glyphname = uni1BAB;
lastChange = "2017-09-14 15:53:51 +0000";
layers = (
{
layerId = UUID0;
paths = (
{
closed = 1;
nodes = (
"150 253 LINE",
"150 318 LINE",
"215 318 LINE",
"215 349 LINE",
"150 349 LINE",
"150 414 LINE",
"119 414 LINE",
"119 349 LINE",
"54 349 LINE",
"54 318 LINE",
"119 318 LINE",
"119 253 LINE"
);
}
);
width = 253;
}
);
unicode = 1BAB;
},
{
glyphname = uni1BAC;
lastChange = "2017-09-14 15:53:51 +0000";
layers = (
{
layerId = UUID0;
paths = (
{
closed = 1;
nodes = (
"-338 -271 OFFCURVE",
"-266 -163 OFFCURVE",
"-266 -50 CURVE SMOOTH",
"-266 -39 LINE",
"-326 -39 LINE",
"-326 -52 LINE SMOOTH",
"-326 -112 OFFCURVE",
"-363 -212 OFFCURVE",
"-491 -212 CURVE SMOOTH",
"-570 -212 OFFCURVE",
"-607 -186 OFFCURVE",
"-607 -144 CURVE SMOOTH",
"-607 -98 OFFCURVE",
"-563 -81 OFFCURVE",
"-509 -81 CURVE SMOOTH",
"-486 -81 OFFCURVE",
"-462 -82 OFFCURVE",
"-450 -83 CURVE",
"-450 -32 LINE",
"-459 -30 OFFCURVE",
"-481 -28 OFFCURVE",
"-509 -28 CURVE SMOOTH",
"-594 -28 OFFCURVE",
"-673 -69 OFFCURVE",
"-673 -144 CURVE SMOOTH",
"-673 -223 OFFCURVE",
"-593 -271 OFFCURVE",
"-489 -271 CURVE SMOOTH"
);
}
);
width = 0;
}
);
unicode = 1BAC;
},
{
glyphname = uni1BAD;
lastChange = "2017-09-14 15:53:51 +0000";
layers = (
{
layerId = UUID0;
paths = (
{
closed = 1;
nodes = (
"-208 -248 LINE",
"-208 -205 LINE",
"-330 -205 LINE",
"-263 -53 LINE",
"-456 -53 LINE",
"-456 -96 LINE",
"-334 -96 LINE",
"-401 -248 LINE"
);
},
{
closed = 1;
nodes = (
"-417 -248 LINE",
"-417 -205 LINE",
"-539 -205 LINE",
"-472 -53 LINE",
"-665 -53 LINE",
"-665 -96 LINE",
"-543 -96 LINE",
"-610 -248 LINE"
);
}
);
width = 0;
}
);
unicode = 1BAD;
},
{
glyphname = uni1BAE;
lastChange = "2017-09-14 15:53:51 +0000";
layers = (
{
layerId = UUID0;
paths = (
{
closed = 1;
nodes = (
"189 0 LINE",
"401 635 LINE",
"663 635 LINE",
"454 0 LINE",
"551 0 LINE",
"661 333 LINE",
"779 333 LINE",
"667 0 LINE",
"958 0 LINE",
"1166 635 LINE",
"1294 635 LINE",
"1086 0 LINE",
"1184 0 LINE",
"1418 714 LINE",
"1095 714 LINE",
"888 79 LINE",
"790 79 LINE",
"902 412 LINE",
"687 412 LINE",
"787 714 LINE",
"100 714 LINE",
"74 635 LINE",
"301 635 LINE",
"92 0 LINE"
);
}
);
width = 1382;
}
);
unicode = 1BAE;
},
{
glyphname = uni1BAF;
lastChange = "2017-09-14 15:53:51 +0000";
layers = (
{
layerId = UUID0;
paths = (
{
closed = 1;
nodes = (
"189 0 LINE",
"295 318 LINE",
"560 318 LINE",
"453 0 LINE",
"550 0 LINE",
"656 318 LINE",
"919 318 LINE",
"812 0 LINE",
"1172 0 LINE",
"1266 286 LINE",
"1365 0 LINE",
"1463 0 LINE",
"1639 536 LINE",
"1542 536 LINE",
"1410 136 LINE",
"1312 427 LINE",
"1406 714 LINE",
"1309 714 LINE",
"1102 79 LINE",
"935 79 LINE",
"1042 397 LINE",
"682 397 LINE",
"788 714 LINE",
"101 714 LINE",
"75 635 LINE",
"306 635 LINE",
"225 397 LINE",
"101 397 LINE",
"75 318 LINE",
"199 318 LINE",
"92 0 LINE"
);
},
{
closed = 1;
nodes = (
"400 635 LINE",
"667 635 LINE",
"586 397 LINE",
"321 397 LINE"
);
}
);
width = 1647;
}
);
unicode = 1BAF;
},
{
glyphname = uni1BB0;
lastChange = "2017-09-14 15:53:51 +0000";
layers = (
{
layerId = UUID0;
paths = (
{
closed = 1;
nodes = (
"617 -2 OFFCURVE",
"778 159 OFFCURVE",
"778 357 CURVE SMOOTH",
"778 555 OFFCURVE",
"617 716 OFFCURVE",
"419 716 CURVE SMOOTH",
"221 716 OFFCURVE",
"60 555 OFFCURVE",
"60 357 CURVE SMOOTH",
"60 159 OFFCURVE",
"221 -2 OFFCURVE",
"419 -2 CURVE SMOOTH"
);
},
{
closed = 1;
nodes = (
"272 90 OFFCURVE",
"152 210 OFFCURVE",
"152 357 CURVE SMOOTH",
"152 503 OFFCURVE",
"272 624 OFFCURVE",
"419 624 CURVE SMOOTH",
"565 624 OFFCURVE",
"686 503 OFFCURVE",
"686 357 CURVE SMOOTH",
"686 210 OFFCURVE",
"565 90 OFFCURVE",
"419 90 CURVE SMOOTH"
);
}
);
width = 828;
}
);
unicode = 1BB0;
},
{
glyphname = uni1BB1;
lastChange = "2017-09-14 15:53:51 +0000";
layers = (
{
layerId = UUID0;
paths = (
{
closed = 1;
nodes = (
"627 0 LINE",
"741 351 LINE",
"465 351 LINE",
"418 211 LINE",
"510 211 LINE",
"533 272 LINE",
"621 272 LINE",
"559 79 LINE",
"215 79 LINE",
"399 635 LINE",
"558 635 LINE",
"580 574 LINE",
"674 574 LINE",
"626 714 LINE",
"123 714 LINE",
"77 574 LINE",
"168 574 LINE",
"188 635 LINE",
"301 635 LINE",
"91 0 LINE"
);
}
);
width = 799;
}
);
unicode = 1BB1;
},
{
glyphname = uni1BB2;
lastChange = "2017-09-14 15:53:51 +0000";
layers = (
{
layerId = UUID0;
paths = (
{
closed = 1;
nodes = (
"578 0 LINE",
"655 236 LINE",
"561 236 LINE",
"510 79 LINE",
"218 79 LINE",
"282 272 LINE",
"455 272 LINE",
"481 351 LINE",
"308 351 LINE",
"428 714 LINE",
"123 714 LINE",
"77 574 LINE",
"168 574 LINE",
"188 635 LINE",
"302 635 LINE",
"93 0 LINE"
);
}
);
width = 701;
}
);
unicode = 1BB2;
},
{
glyphname = uni1BB3;
lastChange = "2017-09-14 15:53:51 +0000";
layers = (
{
layerId = UUID0;
paths = (
{
closed = 1;
nodes = (
"655 0 LINE",
"673 54 LINE",
"540 173 LINE SMOOTH",
"522 189 OFFCURVE",
"490 217 OFFCURVE",
"490 236 CURVE SMOOTH",
"490 251 OFFCURVE",
"496 272 OFFCURVE",
"535 272 CURVE SMOOTH",
"735 272 LINE",
"761 351 LINE",
"534 351 LINE SMOOTH",
"437 351 OFFCURVE",
"398 301 OFFCURVE",
"398 239 CURVE SMOOTH",
"398 195 OFFCURVE",
"429 157 OFFCURVE",
"457 133 CURVE SMOOTH",
"518 79 LINE",
"217 79 LINE",
"427 714 LINE",
"122 714 LINE",
"76 574 LINE",
"167 574 LINE",
"187 635 LINE",
"301 635 LINE",
"92 0 LINE"
);
}
);
width = 765;
}
);
unicode = 1BB3;
},
{
glyphname = uni1BB4;
lastChange = "2017-09-14 15:53:51 +0000";
layers = (
{
layerId = UUID0;
paths = (
{
closed = 1;
nodes = (
"233 0 LINE",
"334 303 LINE",
"514 303 LINE",
"554 426 LINE",
"463 426 LINE",
"449 382 LINE",
"360 382 LINE",
"471 714 LINE",
"116 714 LINE",
"70 574 LINE",
"161 574 LINE",
"181 635 LINE",
"348 635 LINE",
"264 382 LINE",
"85 382 LINE",
"45 259 LINE",
"136 259 LINE",
"150 303 LINE",
"237 303 LINE",
"137 0 LINE"
);
}
);
width = 535;
}
);
unicode = 1BB4;
},
{
glyphname = uni1BB5;
lastChange = "2017-09-14 15:53:51 +0000";
layers = (
{
layerId = UUID0;
paths = (
{
closed = 1;
nodes = (
"827 0 LINE",
"618 635 LINE",
"689 635 LINE",
"709 574 LINE",
"800 574 LINE",
"755 714 LINE",
"495 714 LINE",
"704 79 LINE",
"185 79 LINE",
"394 714 LINE",
"134 714 LINE",
"89 574 LINE",
"180 574 LINE",
"200 635 LINE",
"271 635 LINE",
"62 0 LINE"
);
}
);
width = 866;
}
);
unicode = 1BB5;
},
{
glyphname = uni1BB6;
lastChange = "2017-09-14 15:53:51 +0000";
layers = (
{
layerId = UUID0;
paths = (
{
closed = 1;
nodes = (
"541 0 LINE",
"559 54 LINE",
"426 173 LINE SMOOTH",
"408 189 OFFCURVE",
"376 217 OFFCURVE",
"376 236 CURVE SMOOTH",
"376 251 OFFCURVE",
"382 272 OFFCURVE",
"421 272 CURVE SMOOTH",
"621 272 LINE",
"647 351 LINE",
"420 351 LINE SMOOTH",
"323 351 OFFCURVE",
"284 301 OFFCURVE",
"284 239 CURVE SMOOTH",
"284 195 OFFCURVE",
"315 157 OFFCURVE",
"343 133 CURVE SMOOTH",
"404 79 LINE",
"101 79 LINE",
"285 635 LINE",
"365 635 LINE",
"384 588 LINE",
"475 588 LINE",
"434 714 LINE",
"213 714 LINE",
"-22 0 LINE"
);
}
);
width = 663;
}
);
unicode = 1BB6;
},
{
glyphname = uni1BB7;
lastChange = "2017-09-14 15:53:51 +0000";
layers = (
{
layerId = UUID0;
paths = (
{
closed = 1;
nodes = (
"97 0 LINE",
"306 635 LINE",
"410 635 LINE",
"199 0 LINE",
"514 0 LINE",
"723 635 LINE",
"801 635 LINE",
"827 714 LINE",
"650 714 LINE",
"441 79 LINE",
"323 79 LINE",
"533 714 LINE",
"233 714 LINE",
"25 79 LINE",
"-53 79 LINE",
"-79 0 LINE"
);
}
);
width = 742;
}
);
unicode = 1BB7;
},
{
glyphname = uni1BB8;
lastChange = "2017-09-14 15:53:51 +0000";
layers = (
{
layerId = UUID0;
paths = (
{
closed = 1;
nodes = (
"497 -14 OFFCURVE",
"521 51 OFFCURVE",
"566 187 CURVE SMOOTH",
"714 635 LINE",
"763 635 LINE",
"790 564 LINE",
"881 564 LINE",
"832 714 LINE",
"643 714 LINE",
"489 249 LINE SMOOTH",
"442 107 OFFCURVE",
"441 76 OFFCURVE",
"387 76 CURVE SMOOTH",
"346 76 OFFCURVE",
"302 142 OFFCURVE",
"290 158 CURVE",
"473 714 LINE",
"144 714 LINE",
"99 574 LINE",
"190 574 LINE",
"210 635 LINE",
"350 635 LINE",
"212 212 LINE",
"192 224 OFFCURVE",
"154 234 OFFCURVE",
"124 234 CURVE SMOOTH",
"55 234 OFFCURVE",
"-10 193 OFFCURVE",
"-10 105 CURVE SMOOTH",
"-10 21 OFFCURVE",
"56 -13 OFFCURVE",
"120 -13 CURVE SMOOTH",
"189 -13 OFFCURVE",
"227 20 OFFCURVE",
"254 68 CURVE",
"270 51 OFFCURVE",
"313 -14 OFFCURVE",
"387 -14 CURVE SMOOTH"
);
},
{
closed = 1;
nodes = (
"87 59 OFFCURVE",
"69 80 OFFCURVE",
"69 110 CURVE SMOOTH",
"69 140 OFFCURVE",
"93 158 OFFCURVE",
"122 158 CURVE SMOOTH",
"149 158 OFFCURVE",
"168 148 OFFCURVE",
"186 131 CURVE",
"179 110 OFFCURVE",
"163 59 OFFCURVE",
"121 59 CURVE SMOOTH"
);
}
);
width = 797;
}
);
unicode = 1BB8;
},
{
glyphname = uni1BB9;
lastChange = "2017-09-14 15:53:51 +0000";
layers = (
{
layerId = UUID0;
paths = (
{
closed = 1;
nodes = (
"635 0 LINE",
"653 54 LINE",
"520 173 LINE SMOOTH",
"502 189 OFFCURVE",
"470 217 OFFCURVE",
"470 236 CURVE SMOOTH",
"470 251 OFFCURVE",
"476 272 OFFCURVE",
"515 272 CURVE SMOOTH",
"715 272 LINE",
"741 351 LINE",
"514 351 LINE SMOOTH",
"417 351 OFFCURVE",
"378 301 OFFCURVE",
"378 239 CURVE SMOOTH",
"378 195 OFFCURVE",
"409 157 OFFCURVE",
"437 133 CURVE SMOOTH",
"498 79 LINE",
"195 79 LINE",
"379 635 LINE",
"459 635 LINE",
"478 588 LINE",
"569 588 LINE",
"528 714 LINE",
"161 714 LINE",
"116 574 LINE",
"209 574 LINE",
"228 635 LINE",
"281 635 LINE",
"72 0 LINE"
);
}
);
width = 745;
}
);
unicode = 1BB9;
},
{
glyphname = uni1BBA;
lastChange = "2017-09-14 15:53:51 +0000";
layers = (
{
layerId = UUID0;
paths = (
{
closed = 1;
nodes = (
"169 0 LINE",
"406 714 LINE",
"159 714 LINE",
"133 635 LINE",
"280 635 LINE",
"262 580 LINE",
"116 580 LINE",
"90 501 LINE",
"236 501 LINE",
"71 0 LINE"
);
}
);
width = 364;
}
);
unicode = 1BBA;
},
{
glyphname = uni1BBB;
lastChange = "2017-09-14 15:53:51 +0000";
layers = (
{
layerId = UUID0;
paths = (
{
closed = 1;
nodes = (
"567 161 LINE",
"750 714 LINE",
"474 714 LINE",
"448 635 LINE",
"624 635 LINE",
"494 240 LINE",
"243 240 LINE",
"400 714 LINE",
"123 714 LINE",
"97 635 LINE",
"274 635 LINE",
"118 161 LINE"
);
},
{
closed = 1;
nodes = (
"513 0 LINE",
"539 79 LINE",
"90 79 LINE",
"64 0 LINE"
);
}
);
width = 712;
}
);
unicode = 1BBB;
},
{
glyphname = uni1BBC;
lastChange = "2017-09-14 15:53:51 +0000";
layers = (
{
layerId = UUID0;
paths = (
{
closed = 1;
nodes = (
"706 -303 OFFCURVE",
"747 -272 OFFCURVE",
"765 -238 CURVE",
"789 -263 OFFCURVE",
"847 -300 OFFCURVE",
"906 -300 CURVE SMOOTH",
"1085 -300 OFFCURVE",
"1114 0 OFFCURVE",
"1118 108 CURVE",
"1030 108 LINE",
"1030 84 OFFCURVE",
"1030 60 OFFCURVE",
"1028 37 CURVE SMOOTH",
"1016 -98 OFFCURVE",
"977 -215 OFFCURVE",
"906 -215 CURVE SMOOTH",
"869 -215 OFFCURVE",
"829 -176 OFFCURVE",
"809 -156 CURVE",
"1099 714 LINE",
"772 714 LINE",
"746 635 LINE",
"976 635 LINE",
"733 -86 LINE",
"709 -66 OFFCURVE",
"679 -52 OFFCURVE",
"643 -52 CURVE SMOOTH",
"555 -52 OFFCURVE",
"509 -119 OFFCURVE",
"509 -179 CURVE SMOOTH",
"509 -246 OFFCURVE",
"557 -303 OFFCURVE",
"646 -303 CURVE SMOOTH"
);
},
{
closed = 1;
nodes = (
"610 -229 OFFCURVE",
"588 -209 OFFCURVE",
"588 -178 CURVE SMOOTH",
"588 -146 OFFCURVE",
"612 -125 OFFCURVE",
"643 -125 CURVE SMOOTH",
"676 -125 OFFCURVE",
"690 -153 OFFCURVE",
"698 -168 CURVE",
"693 -198 OFFCURVE",
"673 -229 OFFCURVE",
"641 -229 CURVE SMOOTH"
);
},
{
closed = 1;
nodes = (
"379 0 LINE",
"472 284 LINE",
"567 0 LINE",
"662 0 LINE",
"518 414 LINE",
"426 414 LINE",
"308 79 LINE",
"101 79 LINE",
"284 635 LINE",
"487 635 LINE",
"513 714 LINE",
"214 714 LINE",
"-22 0 LINE"
);
}
);
width = 1180;
}
);
unicode = 1BBC;
},
{
glyphname = uni1BBD;
lastChange = "2017-09-14 15:53:51 +0000";
layers = (
{
layerId = UUID0;
paths = (
{
closed = 1;
nodes = (
"988 0 LINE",
"1014 79 LINE",
"791 79 LINE",
"974 635 LINE",
"1246 635 LINE",
"1158 363 LINE",
"1037 363 LINE",
"1011 284 LINE",
"1230 284 LINE",
"1372 714 LINE",
"902 714 LINE",
"692 79 LINE",
"474 79 LINE",
"686 714 LINE",
"213 714 LINE",
"69 275 LINE",
"279 275 LINE",
"305 354 LINE",
"193 354 LINE",
"286 635 LINE",
"559 635 LINE",
"375 79 LINE",
"166 79 LINE",
"140 0 LINE"
);
}
);
width = 1336;
}
);
unicode = 1BBD;
},
{
glyphname = uni1BBE;
lastChange = "2017-09-14 15:53:51 +0000";
layers = (
{
layerId = UUID0;
paths = (
{
closed = 1;
nodes = (
"1008 0 LINE",
"1034 79 LINE",
"828 79 LINE",
"1038 714 LINE",
"600 714 LINE",
"574 635 LINE",
"912 635 LINE",
"729 79 LINE",
"343 79 LINE",
"553 714 LINE",
"108 714 LINE",
"82 635 LINE",
"427 635 LINE",
"244 79 LINE",
"100 79 LINE",
"74 0 LINE"
);
},
{
closed = 1;
nodes = (
"219 176 LINE",
"338 535 LINE",
"97 535 LINE",
"72 460 LINE",
"230 460 LINE",
"136 176 LINE"
);
},
{
closed = 1;
nodes = (
"704 176 LINE",
"823 535 LINE",
"582 535 LINE",
"557 460 LINE",
"715 460 LINE",
"621 176 LINE"
);
}
);
width = 1075;
}
);
unicode = 1BBE;
},
{
glyphname = uni1BBF;
lastChange = "2017-09-14 15:53:51 +0000";
layers = (
{
layerId = UUID0;
paths = (
{
closed = 1;
nodes = (
"526 0 LINE",
"764 714 LINE",
"138 714 LINE",
"112 635 LINE",
"641 635 LINE",
"427 0 LINE"
);
},
{
closed = 1;
nodes = (
"353 41 LINE",
"379 120 LINE",
"138 120 LINE",
"112 41 LINE"
);
},
{
closed = 1;
nodes = (
"418 239 LINE",
"444 318 LINE",
"138 318 LINE",
"112 239 LINE"
);
},
{
closed = 1;
nodes = (
"483 437 LINE",
"509 516 LINE",
"138 516 LINE",
"112 437 LINE"
);
}
);
width = 727;
}
);
unicode = 1BBF;
},
{
glyphname = uni1CC0;
lastChange = "2017-09-14 15:53:51 +0000";
layers = (
{
layerId = UUID0;
paths = (
{
closed = 1;
nodes = (
"436 -113 LINE",
"508 -22 LINE",
"580 -113 LINE",
"641 -113 LINE",
"556 -5 LINE",
"556 81 LINE",
"673 101 OFFCURVE",
"764 193 OFFCURVE",
"784 311 CURVE",
"870 311 LINE",
"978 226 LINE",
"978 287 LINE",
"887 359 LINE",
"978 431 LINE",
"978 492 LINE",
"870 407 LINE",
"784 407 LINE",
"764 525 OFFCURVE",
"673 615 OFFCURVE",
"556 635 CURVE",
"556 721 LINE",
"641 829 LINE",
"580 829 LINE",
"508 738 LINE",
"436 829 LINE",
"375 829 LINE",
"460 721 LINE",
"460 635 LINE",
"343 615 OFFCURVE",
"250 525 OFFCURVE",
"230 407 CURVE",
"144 407 LINE",
"36 492 LINE",
"36 431 LINE",
"127 359 LINE",
"36 287 LINE",
"36 226 LINE",
"144 311 LINE",
"230 311 LINE",
"250 193 OFFCURVE",
"343 101 OFFCURVE",
"460 81 CURVE",
"460 -5 LINE",
"375 -113 LINE"
);
},
{
closed = 1;
nodes = (
"397 154 OFFCURVE",
"302 247 OFFCURVE",
"302 358 CURVE SMOOTH",
"302 469 OFFCURVE",
"397 562 OFFCURVE",
"508 562 CURVE SMOOTH",
"619 562 OFFCURVE",
"711 469 OFFCURVE",
"711 358 CURVE SMOOTH",
"711 247 OFFCURVE",
"619 154 OFFCURVE",
"508 154 CURVE SMOOTH"
);
},
{
closed = 1;
nodes = (
"561 260 OFFCURVE",
"606 305 OFFCURVE",
"606 358 CURVE SMOOTH",
"606 411 OFFCURVE",
"561 456 OFFCURVE",
"508 456 CURVE SMOOTH",
"455 456 OFFCURVE",
"410 411 OFFCURVE",
"410 358 CURVE SMOOTH",
"410 305 OFFCURVE",
"455 260 OFFCURVE",
"508 260 CURVE SMOOTH"
);
},
{
closed = 1;
nodes = (
"483 313 OFFCURVE",
"463 333 OFFCURVE",
"463 358 CURVE SMOOTH",
"463 383 OFFCURVE",
"483 403 OFFCURVE",
"508 403 CURVE SMOOTH",
"533 403 OFFCURVE",
"553 383 OFFCURVE",
"553 358 CURVE SMOOTH",
"553 333 OFFCURVE",
"533 313 OFFCURVE",
"508 313 CURVE SMOOTH"
);
}
);
width = 1018;
}
);
unicode = 1CC0;
},
{
glyphname = uni1CC1;
lastChange = "2017-09-14 15:53:51 +0000";
layers = (
{
layerId = UUID0;
paths = (
{
closed = 1;
nodes = (
"497 81 OFFCURVE",
"621 205 OFFCURVE",
"621 358 CURVE SMOOTH",
"621 511 OFFCURVE",
"497 635 OFFCURVE",
"344 635 CURVE SMOOTH",
"191 635 OFFCURVE",
"67 511 OFFCURVE",
"67 358 CURVE SMOOTH",
"67 205 OFFCURVE",
"191 81 OFFCURVE",
"344 81 CURVE SMOOTH"
);
},
{
closed = 1;
nodes = (
"154 272 OFFCURVE",
"140 313 OFFCURVE",
"140 358 CURVE SMOOTH",
"140 402 OFFCURVE",
"154 443 OFFCURVE",
"178 476 CURVE",
"297 357 LINE",
"179 239 LINE"
);
},
{
closed = 1;
nodes = (
"299 154 OFFCURVE",
"258 168 OFFCURVE",
"225 193 CURVE",
"343 311 LINE",
"462 192 LINE",
"429 168 OFFCURVE",
"388 154 OFFCURVE",
"344 154 CURVE SMOOTH"
);
},
{
closed = 1;
nodes = (
"224 522 LINE",
"258 547 OFFCURVE",
"299 562 OFFCURVE",
"344 562 CURVE SMOOTH",
"388 562 OFFCURVE",
"429 547 OFFCURVE",
"463 523 CURVE",
"343 403 LINE"
);
},
{
closed = 1;
nodes = (
"389 357 LINE",
"509 477 LINE",
"533 443 OFFCURVE",
"548 402 OFFCURVE",
"548 358 CURVE SMOOTH",
"548 313 OFFCURVE",
"533 272 OFFCURVE",
"508 238 CURVE"
);
}
);
width = 674;
}
);
unicode = 1CC1;
},
{
glyphname = uni1CC2;
lastChange = "2017-09-14 15:53:51 +0000";
layers = (
{
layerId = UUID0;
paths = (
{
closed = 1;
nodes = (
"497 81 OFFCURVE",
"621 205 OFFCURVE",
"621 358 CURVE SMOOTH",
"621 511 OFFCURVE",
"497 635 OFFCURVE",
"344 635 CURVE SMOOTH",
"191 635 OFFCURVE",
"67 511 OFFCURVE",
"67 358 CURVE SMOOTH",
"67 205 OFFCURVE",
"191 81 OFFCURVE",
"344 81 CURVE SMOOTH"
);
},
{
closed = 1;
nodes = (
"293 154 OFFCURVE",
"247 173 OFFCURVE",
"211 203 CURVE",
"234 221 OFFCURVE",
"281 248 OFFCURVE",
"344 248 CURVE SMOOTH",
"407 248 OFFCURVE",
"453 221 OFFCURVE",
"476 203 CURVE",
"441 173 OFFCURVE",
"394 154 OFFCURVE",
"344 154 CURVE SMOOTH"
);
},
{
closed = 1;
nodes = (
"151 284 OFFCURVE",
"140 319 OFFCURVE",
"140 358 CURVE SMOOTH",
"140 396 OFFCURVE",
"151 432 OFFCURVE",
"169 463 CURVE",
"201 438 OFFCURVE",
"263 402 OFFCURVE",
"344 402 CURVE SMOOTH",
"425 402 OFFCURVE",
"487 438 OFFCURVE",
"518 463 CURVE",
"537 432 OFFCURVE",
"548 396 OFFCURVE",
"548 358 CURVE SMOOTH",
"548 319 OFFCURVE",
"537 284 OFFCURVE",
"518 253 CURVE",
"487 277 OFFCURVE",
"425 314 OFFCURVE",
"344 314 CURVE SMOOTH",
"263 314 OFFCURVE",
"201 277 OFFCURVE",
"169 253 CURVE"
);
},
{
closed = 1;
nodes = (
"281 468 OFFCURVE",
"234 495 OFFCURVE",
"211 512 CURVE",
"247 543 OFFCURVE",
"293 562 OFFCURVE",
"344 562 CURVE SMOOTH",
"394 562 OFFCURVE",
"441 543 OFFCURVE",
"476 512 CURVE",
"453 495 OFFCURVE",
"407 468 OFFCURVE",
"344 468 CURVE SMOOTH"
);
}
);
width = 674;
}
);
unicode = 1CC2;
},
{
glyphname = uni1CC3;
lastChange = "2017-09-14 15:53:51 +0000";
layers = (
{
layerId = UUID0;
paths = (
{
closed = 1;
nodes = (
"497 81 OFFCURVE",
"621 205 OFFCURVE",
"621 358 CURVE SMOOTH",
"621 511 OFFCURVE",
"497 635 OFFCURVE",
"344 635 CURVE SMOOTH",
"191 635 OFFCURVE",
"67 511 OFFCURVE",
"67 358 CURVE SMOOTH",
"67 205 OFFCURVE",
"191 81 OFFCURVE",
"344 81 CURVE SMOOTH"
);
},
{
closed = 1;
nodes = (
"232 154 OFFCURVE",
"140 246 OFFCURVE",
"140 358 CURVE SMOOTH",
"140 470 OFFCURVE",
"232 562 OFFCURVE",
"344 562 CURVE SMOOTH",
"456 562 OFFCURVE",
"548 470 OFFCURVE",
"548 358 CURVE SMOOTH",
"548 246 OFFCURVE",
"456 154 OFFCURVE",
"344 154 CURVE SMOOTH"
);
}
);
width = 674;
}
);
unicode = 1CC3;
},
{
glyphname = uni1CC4;
lastChange = "2017-09-14 15:53:51 +0000";
layers = (
{
layerId = UUID0;
paths = (
{
closed = 1;
nodes = (
"985 -303 OFFCURVE",
"1026 -272 OFFCURVE",
"1044 -238 CURVE",
"1068 -263 OFFCURVE",
"1126 -300 OFFCURVE",
"1185 -300 CURVE SMOOTH",
"1264 -300 OFFCURVE",
"1305 -240 OFFCURVE",
"1328 -192 CURVE",
"1260 -152 LINE",
"1243 -184 OFFCURVE",
"1228 -215 OFFCURVE",
"1185 -215 CURVE SMOOTH",
"1148 -215 OFFCURVE",
"1108 -176 OFFCURVE",
"1088 -156 CURVE",
"1378 714 LINE",
"1051 714 LINE",
"1025 635 LINE",
"1255 635 LINE",
"1012 -86 LINE",
"988 -66 OFFCURVE",
"958 -52 OFFCURVE",
"922 -52 CURVE SMOOTH",
"834 -52 OFFCURVE",
"788 -119 OFFCURVE",
"788 -179 CURVE SMOOTH",
"788 -246 OFFCURVE",
"836 -303 OFFCURVE",
"925 -303 CURVE SMOOTH"
);
},
{
closed = 1;
nodes = (
"379 0 LINE",
"472 284 LINE",
"567 0 LINE",
"662 0 LINE",
"518 414 LINE",
"426 414 LINE",
"308 79 LINE",
"101 79 LINE",
"284 635 LINE",
"487 635 LINE",
"513 714 LINE",
"214 714 LINE",
"-22 0 LINE"
);
},
{
closed = 1;
nodes = (
"889 -229 OFFCURVE",
"867 -209 OFFCURVE",
"867 -178 CURVE SMOOTH",
"867 -146 OFFCURVE",
"891 -125 OFFCURVE",
"922 -125 CURVE SMOOTH",
"955 -125 OFFCURVE",
"969 -153 OFFCURVE",
"977 -168 CURVE",
"972 -198 OFFCURVE",
"952 -229 OFFCURVE",
"920 -229 CURVE SMOOTH"
);
},
{
closed = 1;
nodes = (
"951 41 LINE",
"977 120 LINE",
"738 120 LINE",
"712 41 LINE"
);
},
{
closed = 1;
nodes = (
"1017 239 LINE",
"1043 318 LINE",
"678 318 LINE",
"652 239 LINE"
);
},
{
closed = 1;
nodes = (
"1078 437 LINE",
"1104 516 LINE",
"619 516 LINE",
"593 437 LINE"
);
},
{
closed = 1;
nodes = (
"975 635 LINE",
"1001 714 LINE",
"559 714 LINE",
"533 635 LINE"
);
},
{
closed = 1;
nodes = (
"1508 41 LINE",
"1534 120 LINE",
"1295 120 LINE",
"1269 41 LINE"
);
},
{
closed = 1;
nodes = (
"1574 239 LINE",
"1600 318 LINE",
"1361 318 LINE",
"1335 239 LINE"
);
},
{
closed = 1;
nodes = (
"1640 437 LINE",
"1666 516 LINE",
"1427 516 LINE",
"1401 437 LINE"
);
},
{
closed = 1;
nodes = (
"1704 635 LINE",
"1730 714 LINE",
"1491 714 LINE",
"1465 635 LINE"
);
}
);
width = 1680;
}
);
unicode = 1CC4;
},
{
glyphname = uni1CC5;
lastChange = "2017-09-14 15:53:51 +0000";
layers = (
{
layerId = UUID0;
paths = (
{
closed = 1;
nodes = (
"189 0 LINE",
"427 714 LINE",
"100 714 LINE",
"74 635 LINE",
"304 635 LINE",
"90 0 LINE"
);
},
{
closed = 1;
nodes = (
"558 41 LINE",
"584 120 LINE",
"345 120 LINE",
"319 41 LINE"
);
},
{
closed = 1;
nodes = (
"624 239 LINE",
"650 318 LINE",
"411 318 LINE",
"385 239 LINE"
);
},
{
closed = 1;
nodes = (
"690 437 LINE",
"716 516 LINE",
"477 516 LINE",
"451 437 LINE"
);
},
{
closed = 1;
nodes = (
"754 635 LINE",
"780 714 LINE",
"541 714 LINE",
"515 635 LINE"
);
}
);
width = 744;
}
);
unicode = 1CC5;
},
{
glyphname = uni1CC6;
lastChange = "2017-09-14 15:53:51 +0000";
layers = (
{
layerId = UUID0;
paths = (
{
closed = 1;
nodes = (
"379 0 LINE",
"472 284 LINE",
"567 0 LINE",
"662 0 LINE",
"518 414 LINE",
"426 414 LINE",
"308 79 LINE",
"101 79 LINE",
"284 635 LINE",
"487 635 LINE",
"512 714 LINE",
"214 714 LINE",
"-22 0 LINE"
);
},
{
closed = 1;
nodes = (
"951 41 LINE",
"977 120 LINE",
"738 120 LINE",
"712 41 LINE"
);
},
{
closed = 1;
nodes = (
"1017 239 LINE",
"1043 318 LINE",
"678 318 LINE",
"652 239 LINE"
);
},
{
closed = 1;
nodes = (
"1078 437 LINE",
"1104 516 LINE",
"619 516 LINE",
"593 437 LINE"
);
},
{
closed = 1;
nodes = (
"1154 635 LINE",
"1180 714 LINE",
"559 714 LINE",
"533 635 LINE"
);
}
);
width = 1135;
}
);
unicode = 1CC6;
},
{
glyphname = uni1CC7;
lastChange = "2017-09-14 15:53:51 +0000";
layers = (
{
layerId = UUID0;
paths = (
{
closed = 1;
nodes = (
"691 0 LINE",
"797 323 LINE",
"1031 0 LINE",
"1093 0 LINE",
"1331 714 LINE",
"840 714 LINE",
"798 589 LINE",
"894 589 LINE",
"910 635 LINE",
"1208 635 LINE",
"1039 135 LINE",
"796 474 LINE",
"753 474 LINE",
"621 79 LINE",
"424 79 LINE",
"607 635 LINE",
"700 635 LINE",
"725 714 LINE",
"537 714 LINE",
"301 0 LINE"
);
},
{
closed = 1;
nodes = (
"191 41 LINE",
"217 120 LINE",
"-22 120 LINE",
"-48 41 LINE"
);
},
{
closed = 1;
nodes = (
"255 239 LINE",
"281 318 LINE",
"42 318 LINE",
"16 239 LINE"
);
},
{
closed = 1;
nodes = (
"321 437 LINE",
"347 516 LINE",
"108 516 LINE",
"82 437 LINE"
);
},
{
closed = 1;
nodes = (
"385 635 LINE",
"411 714 LINE",
"172 714 LINE",
"146 635 LINE"
);
},
{
closed = 1;
nodes = (
"1471 41 LINE",
"1497 120 LINE",
"1258 120 LINE",
"1232 41 LINE"
);
},
{
closed = 1;
nodes = (
"1535 239 LINE",
"1561 318 LINE",
"1322 318 LINE",
"1296 239 LINE"
);
},
{
closed = 1;
nodes = (
"1601 437 LINE",
"1627 516 LINE",
"1388 516 LINE",
"1362 437 LINE"
);
},
{
closed = 1;
nodes = (
"1665 635 LINE",
"1691 714 LINE",
"1452 714 LINE",
"1426 635 LINE"
);
}
);
width = 1645;
}
);
unicode = 1CC7;
},
{
glyphname = uni25CC;
lastChange = "2017-09-14 15:53:51 +0000";
layers = (
{
layerId = UUID0;
paths = (
{
closed = 1;
nodes = (
"480 466 OFFCURVE",
"472 475 OFFCURVE",
"455 475 CURVE SMOOTH",
"437 475 OFFCURVE",
"428 466 OFFCURVE",
"428 448 CURVE SMOOTH",
"428 431 OFFCURVE",
"437 422 OFFCURVE",
"455 422 CURVE SMOOTH",
"472 422 OFFCURVE",
"480 431 OFFCURVE",
"480 448 CURVE SMOOTH"
);
},
{
closed = 1;
nodes = (
"408 514 OFFCURVE",
"400 523 OFFCURVE",
"383 523 CURVE SMOOTH",
"364 523 OFFCURVE",
"355 514 OFFCURVE",
"355 496 CURVE SMOOTH",
"355 479 OFFCURVE",
"364 470 OFFCURVE",
"383 470 CURVE SMOOTH",
"400 470 OFFCURVE",
"408 479 OFFCURVE",
"408 496 CURVE SMOOTH"
);
},
{
closed = 1;
nodes = (
"529 393 OFFCURVE",
"520 402 OFFCURVE",
"503 402 CURVE SMOOTH",
"485 402 OFFCURVE",
"476 393 OFFCURVE",
"476 376 CURVE SMOOTH",
"476 358 OFFCURVE",
"485 349 OFFCURVE",
"502 349 CURVE SMOOTH",
"520 349 OFFCURVE",
"529 358 OFFCURVE",
"529 376 CURVE SMOOTH"
);
},
{
closed = 1;
nodes = (
"546 308 OFFCURVE",
"538 317 OFFCURVE",
"521 317 CURVE SMOOTH",
"503 317 OFFCURVE",
"494 308 OFFCURVE",
"494 291 CURVE SMOOTH",
"494 274 OFFCURVE",
"503 265 OFFCURVE",
"521 265 CURVE SMOOTH",
"538 265 OFFCURVE",
"546 274 OFFCURVE",
"546 291 CURVE SMOOTH"
);
},
{
closed = 1;
nodes = (
"323 531 OFFCURVE",
"314 540 OFFCURVE",
"297 540 CURVE SMOOTH",
"280 540 OFFCURVE",
"271 531 OFFCURVE",
"271 514 CURVE SMOOTH",
"271 496 OFFCURVE",
"280 487 OFFCURVE",
"297 487 CURVE SMOOTH",
"314 487 OFFCURVE",
"323 496 OFFCURVE",
"323 514 CURVE SMOOTH"
);
},
{
closed = 1;
nodes = (
"239 514 OFFCURVE",
"230 523 OFFCURVE",
"212 523 CURVE SMOOTH",
"195 523 OFFCURVE",
"186 514 OFFCURVE",
"186 496 CURVE SMOOTH",
"186 479 OFFCURVE",
"195 470 OFFCURVE",
"212 470 CURVE SMOOTH",
"230 470 OFFCURVE",
"239 479 OFFCURVE",
"239 496 CURVE SMOOTH"
);
},
{
closed = 1;
nodes = (
"529 224 OFFCURVE",
"520 233 OFFCURVE",
"502 233 CURVE SMOOTH",
"485 233 OFFCURVE",
"476 224 OFFCURVE",
"476 206 CURVE SMOOTH",
"476 189 OFFCURVE",
"485 180 OFFCURVE",
"502 180 CURVE SMOOTH",
"520 180 OFFCURVE",
"529 189 OFFCURVE",
"529 206 CURVE SMOOTH"
);
},
{
closed = 1;
nodes = (
"167 466 OFFCURVE",
"158 475 OFFCURVE",
"140 475 CURVE SMOOTH",
"123 475 OFFCURVE",
"114 466 OFFCURVE",
"114 447 CURVE SMOOTH",
"114 430 OFFCURVE",
"123 422 OFFCURVE",
"140 422 CURVE SMOOTH",
"158 422 OFFCURVE",
"167 431 OFFCURVE",
"167 448 CURVE SMOOTH"
);
},
{
closed = 1;
nodes = (
"480 151 OFFCURVE",
"472 160 OFFCURVE",
"455 160 CURVE SMOOTH",
"437 160 OFFCURVE",
"428 151 OFFCURVE",
"428 133 CURVE SMOOTH",
"428 116 OFFCURVE",
"437 107 OFFCURVE",
"455 107 CURVE SMOOTH",
"472 107 OFFCURVE",
"480 116 OFFCURVE",
"480 133 CURVE SMOOTH"
);
},
{
closed = 1;
nodes = (
"408 103 OFFCURVE",
"400 112 OFFCURVE",
"383 112 CURVE SMOOTH",
"364 112 OFFCURVE",
"355 103 OFFCURVE",
"355 85 CURVE SMOOTH",
"355 68 OFFCURVE",
"364 60 OFFCURVE",
"383 60 CURVE SMOOTH",
"400 60 OFFCURVE",
"408 68 OFFCURVE",
"408 85 CURVE SMOOTH"
);
},
{
closed = 1;
nodes = (
"118 393 OFFCURVE",
"109 402 OFFCURVE",
"92 402 CURVE SMOOTH",
"74 402 OFFCURVE",
"65 393 OFFCURVE",
"65 376 CURVE SMOOTH",
"65 358 OFFCURVE",
"74 349 OFFCURVE",
"93 349 CURVE SMOOTH",
"110 349 OFFCURVE",
"118 358 OFFCURVE",
"118 376 CURVE SMOOTH"
);
},
{
closed = 1;
nodes = (
"101 308 OFFCURVE",
"92 317 OFFCURVE",
"75 317 CURVE SMOOTH",
"57 317 OFFCURVE",
"48 308 OFFCURVE",
"48 291 CURVE SMOOTH",
"48 274 OFFCURVE",
"57 265 OFFCURVE",
"75 265 CURVE SMOOTH",
"92 265 OFFCURVE",
"101 274 OFFCURVE",
"101 291 CURVE SMOOTH"
);
},
{
closed = 1;
nodes = (
"323 86 OFFCURVE",
"314 95 OFFCURVE",
"297 95 CURVE SMOOTH",
"280 95 OFFCURVE",
"271 86 OFFCURVE",
"271 69 CURVE SMOOTH",
"271 51 OFFCURVE",
"280 42 OFFCURVE",
"297 42 CURVE SMOOTH",
"314 42 OFFCURVE",
"323 51 OFFCURVE",
"323 69 CURVE SMOOTH"
);
},
{
closed = 1;
nodes = (
"118 224 OFFCURVE",
"109 233 OFFCURVE",
"92 233 CURVE SMOOTH",
"74 233 OFFCURVE",
"65 224 OFFCURVE",
"65 206 CURVE SMOOTH",
"65 189 OFFCURVE",
"74 180 OFFCURVE",
"92 180 CURVE SMOOTH",
"109 180 OFFCURVE",
"118 189 OFFCURVE",
"118 206 CURVE SMOOTH"
);
},
{
closed = 1;
nodes = (
"239 104 OFFCURVE",
"230 112 OFFCURVE",
"212 112 CURVE SMOOTH",
"195 112 OFFCURVE",
"186 103 OFFCURVE",
"186 85 CURVE SMOOTH",
"186 68 OFFCURVE",
"195 60 OFFCURVE",
"212 60 CURVE SMOOTH",
"230 60 OFFCURVE",
"239 69 OFFCURVE",
"239 87 CURVE SMOOTH"
);
},
{
closed = 1;
nodes = (
"167 151 OFFCURVE",
"158 160 OFFCURVE",
"140 160 CURVE SMOOTH",
"123 160 OFFCURVE",
"114 151 OFFCURVE",
"114 133 CURVE SMOOTH",
"114 116 OFFCURVE",
"123 107 OFFCURVE",
"140 107 CURVE SMOOTH",
"158 107 OFFCURVE",
"167 116 OFFCURVE",
"167 133 CURVE SMOOTH"
);
}
